<?xml version="1.0" encoding="utf-8"?>
<svg version="1.1" id="Layer_1" xmlns="http://www.w3.org/2000/svg" xmlns:xlink="http://www.w3.org/1999/xlink" x="0px" y="0px"
	 viewBox="0 0 57.3 55.3" style="enable-background:new 0 0 57.3 55.3;" xml:space="preserve">
<style type="text/css">
	.st0{fill:#02B3E4;}
</style>
<path class="st0" d="M19.6,0.7l-18,10.4v23.8c0,10.9,8.8,19.9,19.7,19.9c3.6,0,7-0.9,10-2.6L46,43.7c5.8-3.1,9.7-9,9.7-16.1V2.8
	l-3.5-2L36.8,9V35c0,1.1-0.1,2.2-0.3,3.2c-0.3,1.1-0.5,2-0.9,3L35.1,42c-0.5,0-3.9-1.2-5.7-2.4c-0.8-0.5-1.5-1.1-2.2-1.8
	c-0.7-0.7-1.2-1.4-1.8-2.2c-0.5-0.8-0.9-1.6-1.4-2.4c-0.4-0.8-0.7-1.8-0.8-2.7c-0.1-0.9-0.1-1.9-0.1-2.8V2.8L19.6,0.7z M28.4,49.5
	c-0.9,0.4-2.3,0.9-3.4,1.2C23.9,51,23,51,21.9,51s-2.2-0.1-3.2-0.4c-1.1-0.3-2-0.5-3-0.9c-0.9-0.4-1.9-0.9-2.7-1.5
	c-2.4-1.5-3.6-2.8-4.6-4.3c-0.5-0.8-1.1-1.8-1.5-2.7c-0.4-0.9-0.7-2-0.9-3.1c-0.3-1.1-0.3-2.2-0.3-3.2V13.1l13.5-8.2v22.8
	c0,8.6,6.3,15.9,14.4,17.7c-0.3,0.4-0.5,0.8-0.9,1.1C31.2,47.9,30,48.9,28.4,49.5L28.4,49.5z M51.4,30.6c-0.1,0.9-0.5,1.9-0.8,2.7
	c-0.4,0.8-0.8,1.6-1.4,2.4c-0.5,0.8-2.2,2.8-4.3,4.1c-2.2,1.2-4.2,1.6-5.4,1.9c0.8-2.2,1.4-4.3,1.4-6.8V11.1l10.8-6.2v22.8
	C51.6,28.8,51.6,29.7,51.4,30.6z"/>
</svg>
